<svg id="visual" viewBox="0 0 960 100" width="960" height="100" xmlns="http://www.w3.org/2000/svg" xmlns:xlink="http://www.w3.org/1999/xlink" version="1.1"><rect x="0" y="0" width="960" height="100" fill="#161616"></rect><path d="M0 77L6.2 72.2C12.3 67.3 24.7 57.7 37 54.5C49.3 51.3 61.7 54.7 74 54.7C86.3 54.7 98.7 51.3 111 52.2C123.3 53 135.7 58 148 62.2C160.3 66.3 172.7 69.7 185 72.2C197.3 74.7 209.7 76.3 221.8 72.8C234 69.3 246 60.7 258.2 60.5C270.3 60.3 282.7 68.7 295 72.7C307.3 76.7 319.7 76.3 332 74.2C344.3 72 356.7 68 369 63.8C381.3 59.7 393.7 55.3 406 55.3C418.3 55.3 430.7 59.7 443 63.2C455.3 66.7 467.7 69.3 480 69C492.3 68.7 504.7 65.3 517 62.3C529.3 59.3 541.7 56.7 554 57.7C566.3 58.7 578.7 63.3 591 66.5C603.3 69.7 615.7 71.3 628 71.3C640.3 71.3 652.7 69.7 665 69C677.3 68.3 689.7 68.7 701.8 65.8C714 63 726 57 738.2 53.7C750.3 50.3 762.7 49.7 775 53.8C787.3 58 799.7 67 812 68.7C824.3 70.3 836.7 64.7 849 60.8C861.3 57 873.7 55 886 54.8C898.3 54.7 910.7 56.3 923 60.8C935.3 65.3 947.7 72.7 953.8 76.3L960 80L960 101L953.8 101C947.7 101 935.3 101 923 101C910.7 101 898.3 101 886 101C873.7 101 861.3 101 849 101C836.7 101 824.3 101 812 101C799.7 101 787.3 101 775 101C762.7 101 750.3 101 738.2 101C726 101 714 101 701.8 101C689.7 101 677.3 101 665 101C652.7 101 640.3 101 628 101C615.7 101 603.3 101 591 101C578.7 101 566.3 101 554 101C541.7 101 529.3 101 517 101C504.7 101 492.3 101 480 101C467.7 101 455.3 101 443 101C430.7 101 418.3 101 406 101C393.7 101 381.3 101 369 101C356.7 101 344.3 101 332 101C319.7 101 307.3 101 295 101C282.7 101 270.3 101 258.2 101C246 101 234 101 221.8 101C209.7 101 197.3 101 185 101C172.7 101 160.3 101 148 101C135.7 101 123.3 101 111 101C98.7 101 86.3 101 74 101C61.7 101 49.3 101 37 101C24.7 101 12.3 101 6.2 101L0 101Z" fill="#393E46" stroke-linecap="round" stroke-linejoin="miter"></path></svg>