<svg id="visual" viewBox="0 0 960 100" width="960" height="100" xmlns="http://www.w3.org/2000/svg" xmlns:xlink="http://www.w3.org/1999/xlink" version="1.1"><rect x="0" y="0" width="960" height="100" fill="#393E46"></rect><path d="M0 68L6.2 65C12.3 62 24.7 56 37 55.3C49.3 54.7 61.7 59.3 74 60C86.3 60.7 98.7 57.3 111 57.3C123.3 57.3 135.7 60.7 148 61.2C160.3 61.7 172.7 59.3 185 61.8C197.3 64.3 209.7 71.7 221.8 70.8C234 70 246 61 258.2 58.5C270.3 56 282.7 60 295 62.8C307.3 65.7 319.7 67.3 332 65.3C344.3 63.3 356.7 57.7 369 57.5C381.3 57.3 393.7 62.7 406 64.5C418.3 66.3 430.7 64.7 443 65.5C455.3 66.3 467.7 69.7 480 67.3C492.3 65 504.7 57 517 54.3C529.3 51.7 541.7 54.3 554 58.5C566.3 62.7 578.7 68.3 591 66.8C603.3 65.3 615.7 56.7 628 54.7C640.3 52.7 652.7 57.3 665 57.3C677.3 57.3 689.7 52.7 701.8 53.5C714 54.3 726 60.7 738.2 61.3C750.3 62 762.7 57 775 54.2C787.3 51.3 799.7 50.7 812 51.2C824.3 51.7 836.7 53.3 849 53C861.3 52.7 873.7 50.3 886 53C898.3 55.7 910.7 63.3 923 66.2C935.3 69 947.7 67 953.8 66L960 65L960 101L953.8 101C947.7 101 935.3 101 923 101C910.7 101 898.3 101 886 101C873.7 101 861.3 101 849 101C836.7 101 824.3 101 812 101C799.7 101 787.3 101 775 101C762.7 101 750.3 101 738.2 101C726 101 714 101 701.8 101C689.7 101 677.3 101 665 101C652.7 101 640.3 101 628 101C615.7 101 603.3 101 591 101C578.7 101 566.3 101 554 101C541.7 101 529.3 101 517 101C504.7 101 492.3 101 480 101C467.7 101 455.3 101 443 101C430.7 101 418.3 101 406 101C393.7 101 381.3 101 369 101C356.7 101 344.3 101 332 101C319.7 101 307.3 101 295 101C282.7 101 270.3 101 258.2 101C246 101 234 101 221.8 101C209.7 101 197.3 101 185 101C172.7 101 160.3 101 148 101C135.7 101 123.3 101 111 101C98.7 101 86.3 101 74 101C61.7 101 49.3 101 37 101C24.7 101 12.3 101 6.2 101L0 101Z" fill="#161616" stroke-linecap="round" stroke-linejoin="miter"></path></svg>